<?xml version="1.0" encoding="utf-8"?>
<!-- Generator: Adobe Illustrator 27.8.1, SVG Export Plug-In . SVG Version: 6.00 Build 0)  -->
<svg version="1.1" id="Capa_1" xmlns="http://www.w3.org/2000/svg" xmlns:xlink="http://www.w3.org/1999/xlink" x="0px" y="0px"
	 viewBox="0 0 350 350" style="enable-background:new 0 0 350 350;" xml:space="preserve">
<style type="text/css">
	.st0{fill:#FFFFFF;}
</style>
<path class="st0" d="M264.8,122.5h-82.4v24.6H157v-24.6h-13.5v33.6h-25.4v-33.6h-16.2c0-13.3,10.8-24.2,24.1-24.2c0,0,0,0,0.1,0
	h138.7c5.7-25.7,28.4-44,54.8-44V25H126.3c-15.2,0-30.2,3.7-43.7,10.6c-3.4,1.7-6.7,3.7-9.9,5.8c-2.7,1.8-5.2,3.7-7.7,5.8
	c-2.2,1.8-4.3,3.8-6.3,5.8c-1.8,1.8-3.6,3.8-5.3,5.8s-3.1,3.8-4.5,5.8c-1.4,2-2.7,3.8-3.9,5.8s-2.3,3.8-3.4,5.8S39.7,80,38.8,82
	s-1.6,3.8-2.3,5.8s-1.4,3.8-2,5.8s-1,3.8-1.5,5.8s-0.8,3.8-1.1,5.8s-0.7,3.8-0.9,5.8s-0.2,3.8-0.3,5.8c0,1.3-0.2,2.6-0.2,4V180l0,0
	c26.4,0,49.3,18.4,55,44.2h89.5v-24.7h25.3v24.7h13.5v-33.7h25.3v33.8h15.8c0,13.3-10.8,24.1-24.1,24.1H85.6
	c-5.7,25.8-28.5,44.2-55,44.2l0,0V325h193.3c19.6,0.1,38.6-5.9,54.6-17.2c2.6-1.8,5.1-3.7,7.5-5.7c2.2-1.9,4.2-3.8,6.2-5.8
	s3.6-3.8,5.3-5.8s3-3.8,4.4-5.9s2.6-3.8,3.8-5.8s2.3-3.8,3.3-5.8s1.9-3.8,2.8-5.8s1.5-3.8,2.2-5.8s1.3-3.8,1.9-5.8s1-3.8,1.5-5.8
	s0.7-3.9,1-5.8s0.6-3.8,0.8-5.8s0.2-3.9,0.3-5.8c0-1,0.2-2.1,0.2-3.2v-62.8C293.3,166.5,270.5,148.2,264.8,122.5L264.8,122.5z"/>
<circle class="st0" cx="30.6" cy="236.3" r="27.3"/>
<circle class="st0" cx="319.5" cy="110.4" r="27.2"/>
</svg>
